<svg width="20" height="24" viewBox="0 0 20 24" fill="none" xmlns="http://www.w3.org/2000/svg">

<path d="M3 7C3 5.89688 3.89687 5 5 5H14C15.1031 5 16 5.89688 16 7V17C16 18.1031 15.1031 19 14 19H2.5C1.11875 19 0 17.8813 0 16.5V8C0 7.44688 0.446875 7 1 7C1.55313 7 2 7.44688 2 8V16.5C2 16.775 2.225 17 2.5 17C2.775 17 3 16.775 3 16.5V7ZM5 7.75V10.25C5 10.6656 5.33437 11 5.75 11H9.25C9.66562 11 10 10.6656 10 10.25V7.75C10 7.33437 9.66562 7 9.25 7H5.75C5.33437 7 5 7.33437 5 7.75ZM11.5 7.5C11.5 7.775 11.725 8 12 8H13.5C13.775 8 14 7.775 14 7.5C14 7.225 13.775 7 13.5 7H12C11.725 7 11.5 7.225 11.5 7.5ZM11.5 10.5C11.5 10.775 11.725 11 12 11H13.5C13.775 11 14 10.775 14 10.5C14 10.225 13.775 10 13.5 10H12C11.725 10 11.5 10.225 11.5 10.5ZM5 13.5C5 13.775 5.225 14 5.5 14H13.5C13.775 14 14 13.775 14 13.5C14 13.225 13.775 13 13.5 13H5.5C5.225 13 5 13.225 5 13.5ZM5 16.5C5 16.775 5.225 17 5.5 17H13.5C13.775 17 14 16.775 14 16.5C14 16.225 13.775 16 13.5 16H5.5C5.225 16 5 16.225 5 16.5Z" fill="#9CA3AF"/>
</svg>
