<svg width="78" height="24" viewBox="0 0 78 24" fill="none" xmlns="http://www.w3.org/2000/svg">
<path d="M1.5 23H3.24132C3.817 23 4.36477 22.7519 4.74451 22.3193L8.70875 17.8023C8.78558 17.7148 8.85462 17.6207 8.91508 17.5211L11.4667 13.3189C12.0496 12.359 13.3082 12.067 14.2541 12.6722L19.1441 15.8007C19.9223 16.2986 20.9402 16.1987 21.6068 15.559L22.7985 14.4154C23.4946 13.7473 24.5685 13.6715 25.3516 14.2351L26.6954 15.2023C27.2189 15.5791 27.8919 15.6803 28.5031 15.4741L31.9688 14.3049L35.5184 12.7364C35.6902 12.6605 35.8504 12.5607 35.9944 12.4401L39.1937 9.76002C39.9309 9.14242 41.0033 9.13699 41.7467 9.74708L44.0825 11.6639C44.3976 11.9224 44.7841 12.0785 45.1904 12.1113L48.9609 12.4156H53.4711C54.0837 12.4156 54.6625 12.1348 55.0417 11.6537L58.8181 6.86329C58.8872 6.77572 58.9634 6.69408 59.046 6.61922L64.039 2.09615C65.1201 1.11684 66.852 1.58689 67.2896 2.97836L68.8225 7.85243C69.0405 8.54561 69.6174 9.06602 70.3293 9.21176L72.0942 9.57309C72.9681 9.75201 73.6179 10.4881 73.687 11.3775L74.1507 17.3446C74.2317 18.3859 75.1003 19.1896 76.1447 19.1896H76.5" stroke="#2FA766" stroke-linecap="round" stroke-linejoin="round"/>
<path d="M3.24856 22.7229H1.5L74.4926 22.9926C75.6001 22.9967 76.5 22.1001 76.5 20.9926V20.1046C76.5 19.4716 75.9868 18.9584 75.3538 18.9584C74.7556 18.9584 74.2579 18.4984 74.211 17.902L73.6886 11.2606C73.6186 10.3702 72.9667 9.63422 72.0913 9.45716L70.3284 9.10059C69.6169 8.95669 69.0393 8.43862 68.8191 7.74696L67.2902 2.94415C66.8502 1.56205 65.1314 1.09323 64.0506 2.06051L59.0468 6.53878C58.9637 6.6132 58.8869 6.69444 58.8173 6.78167L55.0417 11.5134C54.6622 11.989 54.0868 12.266 53.4784 12.266H48.9609L45.185 11.965C44.7821 11.9329 44.3983 11.7794 44.0844 11.5249L41.7374 9.62211C40.9973 9.02209 39.9367 9.02744 39.2027 9.63492L35.9943 12.2903C35.8504 12.4094 35.6905 12.5078 35.5193 12.5825L31.9688 14.1325L28.493 15.291C27.8874 15.4929 27.2219 15.3935 26.7016 15.0236L25.341 14.0561C24.5619 13.5021 23.4997 13.5769 22.8059 14.2346L21.5998 15.3781C20.9357 16.0078 19.9288 16.1063 19.1552 15.6173L14.2414 12.5115C13.2994 11.9161 12.0524 12.2054 11.4689 13.1549L8.91621 17.3082C8.855 17.4077 8.78518 17.5018 8.70754 17.5892L4.74378 22.0512C4.36424 22.4784 3.82005 22.7229 3.24856 22.7229Z" fill="url(#paint0_linear_427_4189)"/>
<defs>
<linearGradient id="paint0_linear_427_4189" x1="39.4412" y1="-41.5872" x2="39.0245" y2="22.723" gradientUnits="userSpaceOnUse">
<stop stop-color="#1D9B86"/>
<stop offset="1" stop-color="#1D9B86" stop-opacity="0"/>
</linearGradient>
</defs>
</svg>
